<svg id="svg" version="1.1" xmlns="http://www.w3.org/2000/svg" xmlns:xlink="http://www.w3.org/1999/xlink" width="400" height="82.86171916711159" viewBox="0, 0, 400,82.86171916711159"><g id="svgg"><path id="path0" d="M85.448 0.333 C 81.741 1.344,79.105 4.101,78.009 8.115 C 77.497 9.987,77.415 72.627,77.921 74.853 C 78.668 78.139,80.620 80.750,83.353 82.117 L 84.841 82.862 109.379 82.862 L 133.917 82.862 134.985 82.321 C 137.741 80.924,140.059 76.327,139.377 73.609 L 139.234 73.038 119.430 73.031 C 108.538 73.028,98.946 72.936,98.114 72.828 C 94.196 72.319,91.610 70.239,90.409 66.631 C 90.039 65.519,90.012 63.719,89.910 32.782 L 89.802 0.107 88.201 0.063 C 87.313 0.039,86.086 0.160,85.448 0.333 M153.017 0.299 C 149.705 1.349,147.328 3.996,146.597 7.447 C 146.150 9.556,146.150 73.733,146.597 75.842 C 147.636 80.742,150.412 82.862,155.793 82.862 C 161.324 82.862,164.332 80.395,165.136 75.202 C 165.430 73.305,165.376 73.202,163.773 72.617 C 161.963 71.958,160.037 70.070,159.298 68.233 L 158.783 66.951 158.725 33.682 L 158.667 0.413 158.124 0.207 C 157.358 -0.085,154.037 -0.024,153.017 0.299 M205.064 0.392 C 202.404 1.338,200.063 3.717,199.282 6.267 C 198.918 7.454,198.865 8.672,198.734 18.793 L 198.589 30.005 204.171 39.242 C 210.057 48.982,210.319 49.321,210.991 48.065 C 211.340 47.413,211.295 0.505,210.945 0.284 C 210.338 -0.099,206.234 -0.023,205.064 0.392 M237.739 0.395 C 235.287 1.262,233.507 2.930,232.288 5.503 L 231.607 6.941 231.550 40.897 C 231.490 77.142,231.461 76.094,232.582 78.337 C 234.264 81.703,236.390 82.862,240.885 82.862 C 246.682 82.862,250.294 79.629,250.294 74.439 L 250.294 73.264 248.702 72.529 C 246.816 71.658,245.456 70.357,244.593 68.600 L 243.994 67.379 243.887 33.921 C 243.828 15.519,243.700 0.383,243.603 0.285 C 243.215 -0.104,238.922 -0.024,237.739 0.395 M268.492 0.394 C 265.391 1.491,262.967 4.327,262.257 7.688 C 261.741 10.130,262.084 51.737,262.644 54.655 C 265.279 68.389,275.059 78.797,288.647 82.327 C 291.976 83.192,302.102 83.142,305.664 82.242 C 312.007 80.640,317.366 77.591,321.890 73.011 C 325.196 69.663,324.760 68.706,320.730 70.462 C 301.141 79.001,279.707 67.794,275.009 46.556 C 274.574 44.589,274.557 43.860,274.440 22.495 C 274.374 10.377,274.239 0.382,274.142 0.285 C 273.755 -0.103,269.673 -0.023,268.492 0.394 M318.694 0.301 C 315.961 1.183,313.786 3.424,312.476 6.706 C 312.164 7.489,312.114 9.890,312.002 29.365 C 311.862 53.694,311.907 52.986,310.308 56.463 C 309.069 59.161,309.966 59.594,313.633 58.067 C 319.274 55.719,322.826 51.195,323.903 44.987 C 324.309 42.642,324.586 1.016,324.199 0.427 C 323.908 -0.016,319.955 -0.106,318.694 0.301 M350.755 2.661 C 332.946 11.783,333.472 37.013,351.646 45.410 C 355.552 47.215,358.754 48.081,367.752 49.768 C 379.280 51.929,381.652 53.150,382.787 57.506 C 383.233 59.218,383.226 59.212,384.486 59.041 C 395.343 57.567,398.717 46.624,389.675 42.215 C 387.594 41.200,385.321 40.610,378.857 39.408 C 371.721 38.081,370.775 37.871,368.073 37.007 C 360.129 34.469,354.473 29.884,351.938 23.928 C 349.289 17.704,349.850 9.799,353.347 4.041 C 354.847 1.572,353.884 1.059,350.755 2.661 M46.910 5.039 C 41.818 5.959,37.884 8.207,33.656 12.612 C 30.027 16.393,29.854 18.026,33.205 16.873 C 41.466 14.030,51.778 16.239,58.172 22.220 L 59.531 23.492 64.675 23.492 C 70.915 23.492,70.262 24.141,70.262 17.944 L 70.262 13.222 69.247 12.138 C 63.898 6.420,54.972 3.583,46.910 5.039 M373.543 5.242 C 368.113 6.420,365.151 9.261,365.103 13.338 L 365.083 15.056 367.325 15.212 C 374.274 15.697,376.583 16.462,381.791 20.006 C 384.631 21.939,385.879 22.503,387.852 22.746 C 392.747 23.347,397.559 19.218,397.823 14.190 L 397.917 12.404 396.770 11.897 C 396.138 11.617,394.544 10.655,393.226 9.758 C 387.023 5.536,379.812 3.882,373.543 5.242 M105.080 7.674 C 104.948 7.921,104.859 9.865,104.859 12.493 C 104.859 15.122,104.948 17.066,105.080 17.312 C 105.342 17.803,129.968 17.964,132.529 17.492 C 135.213 16.997,137.430 15.305,138.523 12.918 C 139.211 11.415,139.669 8.096,139.257 7.599 C 138.774 7.018,105.392 7.091,105.080 7.674 M10.139 14.896 C -9.851 38.565,0.805 73.825,30.432 82.044 L 32.995 82.755 41.111 82.750 L 49.226 82.745 51.895 81.968 C 56.843 80.529,61.401 78.304,65.252 75.445 C 71.093 71.111,71.142 69.689,65.393 71.399 C 47.819 76.625,30.371 71.028,18.774 56.444 C 10.352 45.853,7.652 29.808,12.083 16.691 C 13.111 13.651,13.106 13.241,12.043 13.241 C 11.675 13.241,11.156 13.692,10.139 14.896 M173.625 18.473 C 173.491 18.825,173.412 23.924,173.412 32.165 L 173.412 45.295 182.519 60.608 C 193.912 79.764,194.259 80.247,197.891 82.037 L 199.348 82.755 203.666 82.820 L 207.984 82.886 209.545 82.159 C 212.664 80.705,214.735 78.651,216.258 75.500 C 217.416 73.105,217.256 72.824,214.738 72.824 C 210.846 72.824,206.775 70.860,204.416 67.844 C 204.025 67.344,197.241 55.936,189.340 42.491 C 173.873 16.170,174.270 16.777,173.625 18.473 M47.517 33.188 C 40.129 35.531,38.334 44.986,44.347 49.885 C 46.405 51.561,47.270 51.767,52.640 51.852 C 58.093 51.938,57.875 51.853,57.875 53.908 C 57.875 56.229,58.142 56.338,61.326 55.308 C 64.128 54.403,67.986 52.449,69.120 51.363 L 70.058 50.464 69.999 46.428 L 69.941 42.392 64.068 42.264 C 60.267 42.182,57.894 42.041,57.341 41.866 C 53.865 40.766,51.069 37.717,50.640 34.557 C 50.399 32.776,49.734 32.485,47.517 33.188 M105.080 40.563 C 104.948 40.808,104.859 42.720,104.859 45.275 C 104.859 47.830,104.948 49.742,105.080 49.987 C 105.431 50.644,129.706 50.627,131.838 49.969 C 135.386 48.873,138.293 44.061,137.447 40.687 L 137.312 40.149 121.306 40.149 C 105.701 40.149,105.295 40.160,105.080 40.563 M343.429 56.385 C 336.472 57.847,333.584 66.461,338.174 72.063 C 341.689 76.353,350.309 80.940,357.642 82.423 C 363.532 83.614,376.228 82.986,381.634 81.236 C 389.022 78.845,400.156 70.503,397.857 69.083 C 397.736 69.008,396.567 69.398,395.260 69.949 C 383.252 75.018,367.976 73.872,356.659 67.054 C 350.324 63.238,349.178 61.900,348.224 57.207 C 348.153 56.860,347.924 56.594,347.626 56.514 C 346.697 56.261,344.359 56.189,343.429 56.385 " stroke="none" fill="#000000" fill-rule="evenodd"></path></g></svg>