<?xml version="1.0" encoding="UTF-8"?><svg version="1.1" viewBox="0 0 1000 1187.2" xmlns="http://www.w3.org/2000/svg" xmlns:cc="http://creativecommons.org/ns#" xmlns:dc="http://purl.org/dc/elements/1.1/" xmlns:rdf="http://www.w3.org/1999/02/22-rdf-syntax-ns#"><metadata><rdf:RDF><cc:Work rdf:about=""><dc:format>image/svg+xml</dc:format><dc:type rdf:resource="http://purl.org/dc/dcmitype/StillImage"/><dc:title/></cc:Work></rdf:RDF></metadata><path d="m979.04 925.19c-17.954 41.477-39.206 79.657-63.828 114.76-33.563 47.853-61.044 80.976-82.222 99.37-32.83 30.192-68.005 45.654-105.67 46.534-27.041 0-59.651-7.6946-97.611-23.304-38.084-15.536-73.084-23.23-105.09-23.23-33.563 0-69.559 7.6945-108.06 23.23-38.561 15.609-69.625 23.743-93.375 24.549-36.12 1.5389-72.124-14.363-108.06-47.78-22.937-20.006-51.627-54.302-85.996-102.89-36.875-51.883-67.192-112.05-90.942-180.64-25.436-74.088-38.187-145.83-38.187-215.29 0-79.562 17.192-148.18 51.627-205.69 27.063-46.189 63.066-82.625 108.13-109.37 45.061-26.748 93.749-40.378 146.18-41.25 28.69 0 66.312 8.8744 113.07 26.315 46.622 17.5 76.557 26.374 89.682 26.374 9.8124 0 43.068-10.377 99.443-31.064 53.312-19.185 98.307-27.129 135.17-24 99.883 8.061 174.92 47.435 224.83 118.37-89.33 54.126-133.52 129.94-132.64 227.19 0.8061 75.751 28.287 138.79 82.295 188.84 24.476 23.23 51.81 41.184 82.222 53.935-6.5952 19.126-13.557 37.447-20.958 55.034zm-229.08-901.44c0 59.373-21.691 114.81-64.927 166.12-52.177 61-115.29 96.248-183.72 90.686-0.87204-7.123-1.3777-14.62-1.3777-22.497 0-56.998 24.813-118 68.877-167.87 21.999-25.253 49.978-46.25 83.907-63 33.856-16.5 65.88-25.625 95.999-27.188 0.87944 7.9373 1.2458 15.875 1.2458 23.75z"/></svg>