<?xml version="1.0" encoding="UTF-8"?><svg version="1.1" viewBox="0 0 71.412 50" xml:space="preserve" xmlns="http://www.w3.org/2000/svg" xmlns:cc="http://creativecommons.org/ns#" xmlns:dc="http://purl.org/dc/elements/1.1/" xmlns:rdf="http://www.w3.org/1999/02/22-rdf-syntax-ns#"><metadata><rdf:RDF><cc:Work rdf:about=""><dc:format>image/svg+xml</dc:format><dc:type rdf:resource="http://purl.org/dc/dcmitype/StillImage"/><dc:title/></cc:Work></rdf:RDF></metadata><g transform="scale(.58824)"><path d="m118.9 13.3c-1.4-5.2-5.5-9.3-10.7-10.7-9.5-2.6-47.5-2.6-47.5-2.6s-38 0-47.5 2.5c-5.1 1.4-9.3 5.6-10.7 10.8-2.5 9.5-2.5 29.2-2.5 29.2s0 19.8 2.5 29.2c1.4 5.2 5.5 9.3 10.7 10.7 9.6 2.6 47.5 2.6 47.5 2.6s38 0 47.5-2.5c5.2-1.4 9.3-5.5 10.7-10.7 2.5-9.5 2.5-29.2 2.5-29.2s0.1-19.8-2.5-29.3z" fill="#f00"/><polygon points="80.2 42.5 48.6 24.3 48.6 60.7" fill="#fff"/></g></svg>