<svg id="svg" version="1.1" xmlns="http://www.w3.org/2000/svg" xmlns:xlink="http://www.w3.org/1999/xlink" width="400" height="209" viewBox="0, 0, 400,209"><g id="svgg"><path id="path0" d="M327.500 145.000 L 327.500 153.667 363.333 153.667 L 399.167 153.667 399.167 145.000 L 399.167 136.333 363.333 136.333 L 327.500 136.333 327.500 145.000 M327.500 172.333 L 327.500 181.000 363.333 181.000 L 399.167 181.000 399.167 172.333 L 399.167 163.667 363.333 163.667 L 327.500 163.667 327.500 172.333 M327.500 200.417 L 327.500 209.000 363.333 209.000 L 399.167 209.000 399.167 200.417 L 399.167 191.833 363.333 191.833 L 327.500 191.833 327.500 200.417 " stroke="none" fill="#4cc4f4" fill-rule="evenodd"></path><path id="path1" d="M81.833 145.000 L 81.833 153.667 117.750 153.667 L 153.667 153.667 153.667 145.000 L 153.667 136.333 117.750 136.333 L 81.833 136.333 81.833 145.000 M245.500 145.000 L 245.500 153.667 281.417 153.667 L 317.333 153.667 317.333 145.000 L 317.333 136.333 281.417 136.333 L 245.500 136.333 245.500 145.000 M81.833 172.333 L 81.833 181.000 117.750 181.000 L 153.667 181.000 153.667 172.333 L 153.667 163.667 117.750 163.667 L 81.833 163.667 81.833 172.333 M245.500 172.333 L 245.500 181.000 281.417 181.000 L 317.333 181.000 317.333 172.333 L 317.333 163.667 281.417 163.667 L 245.500 163.667 245.500 172.333 M81.833 200.417 L 81.833 209.000 117.750 209.000 L 153.667 209.000 153.667 200.417 L 153.667 191.833 117.750 191.833 L 81.833 191.833 81.833 200.417 M245.500 200.417 L 245.500 209.000 281.417 209.000 L 317.333 209.000 317.333 200.417 L 317.333 191.833 281.417 191.833 L 245.500 191.833 245.500 200.417 " stroke="none" fill="#ccdc3c" fill-rule="evenodd"></path><path id="path2" d="M162.833 36.250 L 162.833 45.333 199.583 45.333 L 236.333 45.333 236.333 36.250 L 236.333 27.167 199.583 27.167 L 162.833 27.167 162.833 36.250 M162.833 64.000 L 162.833 72.667 199.583 72.667 L 236.333 72.667 236.333 64.000 L 236.333 55.333 199.583 55.333 L 162.833 55.333 162.833 64.000 M162.833 91.250 L 162.833 99.833 199.583 99.833 L 236.333 99.833 236.333 91.250 L 236.333 82.667 199.583 82.667 L 162.833 82.667 162.833 91.250 M162.833 118.583 L 162.833 127.167 199.583 127.167 L 236.333 127.167 236.333 118.583 L 236.333 110.000 199.583 110.000 L 162.833 110.000 162.833 118.583 " stroke="none" fill="#f4bccc" fill-rule="evenodd"></path><path id="path3" d="M163.667 145.000 L 163.667 153.667 199.583 153.667 L 235.500 153.667 235.500 145.000 L 235.500 136.333 199.583 136.333 L 163.667 136.333 163.667 145.000 M163.667 172.333 L 163.667 181.000 199.583 181.000 L 235.500 181.000 235.500 172.333 L 235.500 163.667 199.583 163.667 L 163.667 163.667 163.667 172.333 M163.667 200.417 L 163.667 209.000 199.583 209.000 L 235.500 209.000 235.500 200.417 L 235.500 191.833 199.583 191.833 L 163.667 191.833 163.667 200.417 " stroke="none" fill="#fc3c84" fill-rule="evenodd"></path><path id="path4" d="M0.000 145.000 L 0.000 153.667 35.833 153.667 L 71.667 153.667 71.667 145.000 L 71.667 136.333 35.833 136.333 L 0.000 136.333 0.000 145.000 M0.000 172.333 L 0.000 181.000 35.833 181.000 L 71.667 181.000 71.667 172.333 L 71.667 163.667 35.833 163.667 L 0.000 163.667 0.000 172.333 M0.000 200.417 L 0.000 209.000 35.833 209.000 L 71.667 209.000 71.667 200.417 L 71.667 191.833 35.833 191.833 L 0.000 191.833 0.000 200.417 " stroke="none" fill="#fc9420" fill-rule="evenodd"></path><path id="path5" d="M326.500 9.417 L 326.500 18.833 363.250 18.833 L 400.000 18.833 400.000 9.417 L 400.000 0.000 363.250 0.000 L 326.500 0.000 326.500 9.417 M326.500 36.250 L 326.500 45.333 363.250 45.333 L 400.000 45.333 400.000 36.250 L 400.000 27.167 363.250 27.167 L 326.500 27.167 326.500 36.250 M326.540 63.958 L 326.583 72.583 363.292 72.625 L 400.000 72.667 400.000 64.000 L 400.000 55.333 363.249 55.333 L 326.497 55.333 326.540 63.958 M326.500 91.250 L 326.500 99.833 363.250 99.833 L 400.000 99.833 400.000 91.250 L 400.000 82.667 363.250 82.667 L 326.500 82.667 326.500 91.250 M326.500 118.583 L 326.500 127.167 363.250 127.167 L 400.000 127.167 400.000 118.583 L 400.000 110.000 363.250 110.000 L 326.500 110.000 326.500 118.583 " stroke="none" fill="#b4e4fc" fill-rule="evenodd"></path><path id="path6" d="M0.000 91.250 L 0.000 99.833 35.833 99.833 L 71.667 99.833 71.667 91.250 L 71.667 82.667 35.833 82.667 L 0.000 82.667 0.000 91.250 M0.000 118.583 L 0.000 127.167 35.833 127.167 L 71.667 127.167 71.667 118.583 L 71.667 110.000 35.833 110.000 L 0.000 110.000 0.000 118.583 " stroke="none" fill="#fc9c7c" fill-rule="evenodd"></path><path id="path7" d="M244.667 91.250 L 244.667 99.833 281.417 99.833 L 318.167 99.833 318.167 91.250 L 318.167 82.667 281.417 82.667 L 244.667 82.667 244.667 91.250 M244.667 118.583 L 244.667 127.167 281.417 127.167 L 318.167 127.167 318.167 118.583 L 318.167 110.000 281.417 110.000 L 244.667 110.000 244.667 118.583 " stroke="none" fill="#e4ec9c" fill-rule="evenodd"></path><path id="path8" d="" stroke="none" fill="#6cdca4" fill-rule="evenodd"></path></g></svg>