<svg id="svg" version="1.1" xmlns="http://www.w3.org/2000/svg" xmlns:xlink="http://www.w3.org/1999/xlink" width="400" height="400" viewBox="0, 0, 400,400"><g id="svgg"><path id="path0" d="M98.653 107.296 C 67.397 139.936,67.890 191.070,99.767 223.048 C 107.548 230.854,113.591 235.022,115.405 233.833 C 117.014 232.779,117.014 232.266,115.408 227.120 C 105.913 196.700,112.659 165.709,134.135 141.086 L 137.200 137.572 137.200 121.475 C 137.200 107.553,137.116 105.258,136.577 104.489 L 135.955 103.600 119.077 103.596 L 102.200 103.592 98.653 107.296 M200.976 104.167 C 200.231 104.712,200.191 105.525,199.987 124.267 C 199.746 146.268,199.814 145.741,196.349 152.436 C 191.721 161.377,182.511 167.795,172.600 168.985 C 168.536 169.473,168.032 170.825,169.598 177.036 C 176.298 203.615,211.920 209.274,226.716 186.110 C 230.978 179.438,231.600 176.000,231.600 159.106 C 231.600 142.603,231.027 144.000,237.797 144.000 C 245.746 144.000,245.992 143.699,244.050 136.342 C 242.042 128.734,238.335 120.117,234.276 113.624 C 231.727 109.545,227.666 104.111,226.966 103.842 C 225.510 103.283,201.780 103.580,200.976 104.167 M294.262 105.931 C 293.342 106.949,293.344 106.959,295.772 114.160 C 314.977 171.106,297.666 232.918,251.746 271.364 C 212.756 304.008,159.171 313.530,111.052 296.365 C 106.060 294.584,105.577 294.521,104.662 295.531 C 102.637 297.769,105.551 301.026,117.785 310.200 C 175.134 353.199,257.557 343.430,303.752 288.157 C 348.077 235.122,346.085 157.105,299.128 107.100 C 297.152 104.996,295.474 104.593,294.262 105.931 " stroke="none" fill="#050504" fill-rule="evenodd"></path><path id="path1" d="M183.400 0.422 C 124.597 6.179,74.832 33.742,39.858 79.924 C 4.157 127.065,-8.681 190.200,5.620 248.305 C 22.903 318.528,77.702 374.610,147.600 393.608 C 179.231 402.206,217.325 402.488,249.754 394.364 C 325.593 375.367,384.608 311.504,397.575 234.400 C 400.703 215.799,401.054 187.912,398.379 170.600 C 384.373 79.955,314.245 12.353,222.400 0.959 C 216.193 0.189,189.528 -0.178,183.400 0.422 M136.577 104.489 C 137.116 105.258,137.200 107.553,137.200 121.475 L 137.200 137.572 134.135 141.086 C 112.659 165.709,105.913 196.700,115.408 227.120 C 117.014 232.266,117.014 232.779,115.405 233.833 C 113.591 235.022,107.548 230.854,99.767 223.048 C 67.890 191.070,67.397 139.936,98.653 107.296 L 102.200 103.592 119.077 103.596 L 135.955 103.600 136.577 104.489 M226.966 103.842 C 227.666 104.111,231.727 109.545,234.276 113.624 C 238.335 120.117,242.042 128.734,244.050 136.342 C 245.992 143.699,245.746 144.000,237.797 144.000 C 231.027 144.000,231.600 142.603,231.600 159.106 C 231.600 176.000,230.978 179.438,226.716 186.110 C 211.920 209.274,176.298 203.615,169.598 177.036 C 168.032 170.825,168.536 169.473,172.600 168.985 C 182.511 167.795,191.721 161.377,196.349 152.436 C 199.814 145.741,199.746 146.268,199.987 124.267 C 200.191 105.525,200.231 104.712,200.976 104.167 C 201.780 103.580,225.510 103.283,226.966 103.842 M299.128 107.100 C 346.085 157.105,348.077 235.122,303.752 288.157 C 257.557 343.430,175.134 353.199,117.785 310.200 C 105.551 301.026,102.637 297.769,104.662 295.531 C 105.577 294.521,106.060 294.584,111.052 296.365 C 224.331 336.774,334.275 228.327,295.772 114.160 C 293.344 106.959,293.342 106.949,294.262 105.931 C 295.474 104.593,297.152 104.996,299.128 107.100 " stroke="none" fill="#fbfb63" fill-rule="evenodd"></path></g></svg>