<?xml version="1.0" encoding="UTF-8"?><svg enable-background="new 0 0 84.3 20.7" version="1.1" viewBox="0 0 84.3 20.7" xml:space="preserve" xmlns="http://www.w3.org/2000/svg"><path d="m35.4 20.1v-13.5h-0.1l-5.4 13.5h-2.1l-5.4-13.5h-0.1v13.5h-2.5v-18.3h3.2l5.8 14.6h0.1l5.8-14.6h3.3v18.3h-2.6zm16.7 0h-2.6v-2.3h-0.1c-0.7 1.6-2.1 2.5-4.1 2.5-2.9 0-4.6-1.9-4.6-5v-8.6h2.7v8.1c0 2 1 3.1 2.8 3.1 2 0 3.1-1.4 3.1-3.5v-7.7h2.7l0.1 13.4zm7.4-13.6c3.1 0 5 1.7 5.1 4.2h-2.5c-0.2-1.3-1.1-2.1-2.6-2.1s-2.5 0.7-2.5 1.8c0 0.8 0.6 1.4 2 1.7l2.1 0.5c2.7 0.6 3.7 1.7 3.7 3.6 0 2.4-2.2 4.1-5.3 4.1-3.3 0-5.3-1.6-5.5-4.2h2.7c0.2 1.4 1.2 2.1 2.8 2.1s2.6-0.7 2.6-1.8c0-0.9-0.5-1.4-1.9-1.7l-2.1-0.5c-2.5-0.6-3.7-1.8-3.7-3.8 0-2.3 2-3.9 5.1-3.9zm7.3-3.3c0-0.9 0.7-1.6 1.6-1.6s1.6 0.7 1.6 1.6-0.7 1.6-1.6 1.6-1.6-0.7-1.6-1.6zm0.2 3.5h2.7v13.4h-2.7v-13.4zm14.1 4.6c-0.3-1.4-1.3-2.6-3.1-2.6-2.1 0-3.5 1.8-3.5 4.6 0 2.9 1.4 4.6 3.5 4.6 1.7 0 2.7-0.9 3.1-2.5h2.6c-0.3 2.8-2.5 4.8-5.7 4.8-3.8 0-6.2-2.6-6.2-6.9 0-4.2 2.4-6.9 6.2-6.9 3.4 0 5.4 2.2 5.7 4.8l-2.6 0.1zm-69.6-7.7c-0.7 0.8-1.8 1.5-2.9 1.4-0.2-1.2 0.4-2.4 1-3.1 0.7-0.9 1.9-1.5 2.9-1.5 0.1 1.1-0.3 2.3-1 3.2zm1 1.6c0.6 0 2.4 0.2 3.6 2-0.1 0.1-2.1 1.3-2.1 3.8 0 3 2.6 4 2.6 4 0 0.1-0.4 1.4-1.3 2.8-0.8 1.2-1.7 2.4-3 2.4s-1.7-0.8-3.2-0.8-2 0.8-3.2 0.8c-1.3 0-2.3-1.3-3.1-2.5-1.7-2.5-3-7-1.2-10 0.8-1.5 2.4-2.5 4-2.5 1.3 0 2.5 0.9 3.2 0.9s2.1-1 3.7-0.9z"/></svg>