<?xml version="1.0" encoding="UTF-8"?><svg enable-background="new 0 0 1000 191.2" version="1.1" viewBox="0 0 1e3 191.2" xml:space="preserve" xmlns="http://www.w3.org/2000/svg"><style type="text/css">
	.st0{fill-rule:evenodd;clip-rule:evenodd;fill:;}
	.st1{fill-rule:evenodd;clip-rule:evenodd;fill:url(#i);}
	.st2{fill-rule:evenodd;clip-rule:evenodd;fill:url(#h);}
	.st3{fill-rule:evenodd;clip-rule:evenodd;fill:url(#g);}
	.st4{fill-rule:evenodd;clip-rule:evenodd;fill:url(#f);}
	.st5{fill-rule:evenodd;clip-rule:evenodd;fill:url(#e);}
	.st6{fill-rule:evenodd;clip-rule:evenodd;fill:url(#d);}
	.st7{fill-rule:evenodd;clip-rule:evenodd;fill:url(#c);}
	.st8{fill-rule:evenodd;clip-rule:evenodd;fill:url(#b);}
	.st9{fill-rule:evenodd;clip-rule:evenodd;fill:url(#a);}
</style><g transform="translate(0 86.844)"><path d="m234.1 40.1c0 40.1 24.7 64.1 61.4 64.1 18.3 0 33.7-5.1 42.3-18.5v18.5h33.5v-191h-34.8v81.2c-7.9-13.4-22.5-19.4-40.8-19.4-35.8-0.1-61.6 24.4-61.6 65.1zm103.5 0c0 22.9-15.6 37.2-34.3 37.2-19.4 0-34.3-14.3-34.3-37.2 0-23.3 15-37.9 34.3-37.9 18.7 0 34.3 14.8 34.3 37.9z"/><path d="m479.6 54.9c-4 14.8-14.1 22.2-30 22.2-18.5 0-33.7-11.2-34.1-31h87.7c1.1-4.9 1.6-10.1 1.6-15.8 0-35.5-24.2-55.5-59.9-55.5-38.1 0-64.3 27.1-64.3 63.9 0 41 28.9 65.6 68.9 65.6 30.2 0 50.7-12.6 59.7-37.7l-29.6-11.7zm-64.1-32c3.3-14.3 15.2-22.7 29.5-22.7 15.6 0 26.2 8.4 26.2 21.6l-0.2 1.1h-55.5z"/><path d="m608.7 54.9c-4 14.8-14.1 22.2-30 22.2-18.5 0-33.7-11.2-34.1-31h87.7c1.1-4.9 1.6-10.1 1.6-15.8 0-35.5-24.2-55.5-59.9-55.5-38.1 0-64.3 27.1-64.3 63.9 0 41 28.9 65.6 68.9 65.6 30.2 0 50.7-12.6 59.7-37.7l-29.6-11.7zm-64.1-32c3.3-14.3 15.2-22.7 29.5-22.7 15.6 0 26.2 8.4 26.2 21.6l-0.2 1.1h-55.5z"/><path d="M756.7,104.4V72.9h-73.1l71.1-69.2v-28.8H642.2v30h68.7L640,74.4v30H756.7   z"/><path d="m858.4 54.9c-4 14.8-14.1 22.2-30 22.2-18.5 0-33.7-11.2-34.1-31h87.7c1.1-4.9 1.6-10.1 1.6-15.8 0-35.5-24.2-55.5-59.9-55.5-38.1 0-64.3 27.1-64.3 63.9 0 41 28.9 65.6 68.9 65.6 30.2 0 50.7-12.6 59.7-37.7l-29.6-11.7zm-64.1-32c3.3-14.3 15.2-22.7 29.5-22.7 15.6 0 26.2 8.4 26.2 21.6l-0.2 1.1h-55.5z"/><rect fill="#40AB5D" clip-rule="evenodd" fill-rule="evenodd" x="155.5" y="-25.1" width="42.9" height="25.1"/><linearGradient id="i" x1="-111.72" x2="-111.94" y1="241.8" y2="255.83" gradientTransform="matrix(1.8318 0 0 -1.8318 381.81 477.95)" gradientUnits="userSpaceOnUse"><stop stop-color="#358C7B" offset="0"/><stop stop-color="#33A65E" offset=".5256"/></linearGradient><rect fill="url(#i)" clip-rule="evenodd" fill-rule="evenodd" x="155.5" y="9.7" width="42.9" height="25.1"/><linearGradient id="h" x1="-123.89" x2="-99.772" y1="223.63" y2="235.92" gradientTransform="matrix(1.8318 0 0 -1.8318 381.81 477.95)" gradientUnits="userSpaceOnUse"><stop stop-color="#222B90" offset="0"/><stop stop-color="#367B99" offset="1"/></linearGradient><rect class="st2" x="155.5" y="44.5" width="42.9" height="25.1"/><linearGradient id="g" x1="-208.43" x2="-185.03" y1="210.77" y2="210.77" gradientTransform="matrix(1.8318 0 0 -1.8318 381.81 477.95)" gradientUnits="userSpaceOnUse"><stop stop-color="#f90" offset="0"/><stop stop-color="#FF8000" offset="1"/></linearGradient><rect class="st3" y="79.3" width="42.9" height="25.1"/><linearGradient id="f" x1="-180.13" x2="-156.73" y1="210.77" y2="210.77" gradientTransform="matrix(1.8318 0 0 -1.8318 381.81 477.95)" gradientUnits="userSpaceOnUse"><stop stop-color="#FF8000" offset="0"/><stop stop-color="#CC1953" offset="1"/></linearGradient><rect class="st4" x="51.8" y="79.3" width="42.9" height="25.1"/><linearGradient id="e" x1="-151.83" x2="-128.43" y1="210.77" y2="210.77" gradientTransform="matrix(1.8318 0 0 -1.8318 381.81 477.95)" gradientUnits="userSpaceOnUse"><stop stop-color="#CC1953" offset="0"/><stop stop-color="#241284" offset="1"/></linearGradient><rect class="st5" x="103.7" y="79.3" width="42.9" height="25.1"/><linearGradient id="d" x1="-123.56" x2="-100.16" y1="210.77" y2="210.77" gradientTransform="matrix(1.8318 0 0 -1.8318 381.81 477.95)" gradientUnits="userSpaceOnUse"><stop stop-color="#222B90" offset="0"/><stop stop-color="#3559A6" offset="1"/></linearGradient><rect class="st6" x="155.5" y="79.3" width="42.9" height="25.1"/><linearGradient id="c" x1="-152.76" x2="-127.51" y1="226.08" y2="233.46" gradientTransform="matrix(1.8318 0 0 -1.8318 381.81 477.95)" gradientUnits="userSpaceOnUse"><stop stop-color="#CC1953" offset="0"/><stop stop-color="#241284" offset="1"/></linearGradient><rect class="st7" x="103.7" y="44.5" width="42.9" height="25.1"/><linearGradient id="b" x1="-180.96" x2="-155.9" y1="234.33" y2="225.21" gradientTransform="matrix(1.8318 0 0 -1.8318 381.81 477.95)" gradientUnits="userSpaceOnUse"><stop stop-color="#fc0" offset=".0026698"/><stop stop-color="#CE1938" offset=".9999"/></linearGradient><rect class="st8" x="51.8" y="44.5" width="42.9" height="25.1"/><linearGradient id="a" x1="-178.17" x2="-158.7" y1="257.75" y2="239.79" gradientTransform="matrix(1.8318 0 0 -1.8318 381.81 477.95)" gradientUnits="userSpaceOnUse"><stop stop-color="#FFD100" offset=".0026698"/><stop stop-color="#FD5A22" offset="1"/></linearGradient><rect class="st9" x="51.8" y="9.7" width="42.9" height="25.1"/><path d="m966.1 19.6v3.7h33.9v-9.9c0-22.2-13.9-38.3-37.2-38.3-15 0-25.6 7.3-31.1 19.4v-19.4h-35v129.3h35v-83.3c0-13.2 7.1-20.5 18-20.5 10 0.1 16.4 9.5 16.4 19z"/></g></svg>